<svg width="25" height="16" viewBox="0 0 25 16" fill="none" xmlns="http://www.w3.org/2000/svg">
<path d="M10.1346 15.9793C5.47428 15.8994 3.88256 15.8275 2.90419 15.6399C2.24226 15.5152 1.66704 15.2384 1.24527 14.8369C0.9193 14.5331 0.660066 14.0695 0.458944 13.4262C0.286424 12.8904 0.219232 12.4445 0.123438 11.3554C-0.0232042 8.89748 -0.0581622 6.88794 0.123438 4.64258C0.273258 3.40262 0.345898 1.93064 1.34107 1.07189C1.81096 0.669979 2.35757 0.411338 2.97138 0.304416C3.93023 0.134946 8.01532 0.000976562 12.2443 0.000976562C16.4638 0.000976562 20.558 0.134946 21.5177 0.304416C22.2845 0.438385 23.0037 0.83987 23.4259 1.35758C24.3339 2.68713 24.3498 4.3404 24.442 5.63361C24.4801 6.24979 24.4801 9.74863 24.442 10.3648C24.2985 12.4086 24.1832 13.1317 23.8572 13.8814C23.6556 14.3547 23.4836 14.6045 23.1857 14.8813C22.7186 15.3073 22.1232 15.5906 21.4787 15.6936C17.4458 15.9759 14.0213 16.0372 10.1346 15.9793ZM16.3104 7.76698C14.0667 6.65085 11.9184 5.61586 9.72236 4.54453V10.9539C12.0332 9.78456 14.4694 8.71322 16.3199 7.75811L16.3104 7.76698Z" fill="#CD201F"/>
</svg>
