<svg width="65" height="20" viewBox="0 0 65 20" fill="none" xmlns="http://www.w3.org/2000/svg">
<g clip-path="url(#clip0_203_109)">
<path d="M59.3977 0L45.5859 19.8214H49.8265L63.71 0H59.3977Z" fill="#232427"/>
<path d="M50.2683 0L54.3322 5.84071L52.2119 9.02655L45.9395 0H50.2683Z" fill="#232427"/>
<path d="M59.8083 19.8231L55.3027 13.363L57.423 10.2656L64.0488 19.8231H59.8083Z" fill="#232427"/>
<path fill-rule="evenodd" clip-rule="evenodd" d="M40.6392 0H44.3497V19.8214H40.6392V19.0811C39.5676 19.6669 38.3373 20 37.0289 20C32.8751 20 29.5078 16.6421 29.5078 12.5C29.5078 8.35786 32.8751 5 37.0289 5C38.3373 5 39.5676 5.33311 40.6392 5.91892V0ZM36.9893 16.7083C39.3419 16.7083 41.2491 14.8065 41.2491 12.4605C41.2491 10.1145 39.3419 8.21271 36.9893 8.21271C34.6367 8.21271 32.7296 10.1145 32.7296 12.4605C32.7296 14.8065 34.6367 16.7083 36.9893 16.7083Z" fill="#232427"/>
<path d="M29.8756 0L16.0781 19.8214H20.4036L34.1878 0H29.8756Z" fill="#232427"/>
<path d="M20.4079 0L24.7368 6.0177L22.3515 9.38053L15.9023 0H20.4079Z" fill="#232427"/>
<path fill-rule="evenodd" clip-rule="evenodd" d="M11.1314 0H14.8418V19.8214H11.1314V19.0811C10.0597 19.6669 8.82946 20 7.52115 20C3.36733 20 0 16.6421 0 12.5C0 8.35786 3.36733 5 7.52115 5C8.82946 5 10.0597 5.33311 11.1314 5.91892V0ZM7.48154 16.7083C9.83415 16.7083 11.7413 14.8065 11.7413 12.4605C11.7413 10.1145 9.83415 8.21271 7.48154 8.21271C5.12893 8.21271 3.22177 10.1145 3.22177 12.4605C3.22177 14.8065 5.12893 16.7083 7.48154 16.7083Z" fill="#232427"/>
</g>
<defs>
<clipPath id="clip0_203_109">
<rect width="64.138" height="20" fill="white"/>
</clipPath>
</defs>
</svg>
