<svg width="35" height="35" viewBox="0 0 35 35" fill="none" xmlns="http://www.w3.org/2000/svg">
<path d="M17.5001 0.780273C8.26648 0.780273 0.78125 8.2655 0.78125 17.4991C0.78125 26.7328 8.26648 34.218 17.5001 34.218C26.7337 34.218 34.219 26.7328 34.219 17.4991C34.219 8.2655 26.7337 0.780273 17.5001 0.780273ZM29.7366 18.4115H21.9785C21.7476 19.5707 21.0907 20.6012 20.1374 21.2998C19.1841 21.9985 18.0036 22.3146 16.8287 22.1858C15.6539 22.057 14.5699 21.4926 13.7907 20.6039C13.0114 19.7153 12.5934 18.5669 12.6191 17.3853C12.6449 16.2036 13.1124 15.0745 13.9296 14.2207C14.7468 13.3668 15.8543 12.8501 17.0337 12.7725C18.213 12.695 19.3786 13.0621 20.3006 13.8016C21.2226 14.5411 21.834 15.5992 22.0143 16.7673H29.7366C29.8467 16.7639 29.9564 16.7826 30.0591 16.8224C30.1618 16.8622 30.2555 16.9222 30.3346 16.9989C30.4137 17.0755 30.4766 17.1673 30.5196 17.2688C30.5625 17.3702 30.5847 17.4793 30.5847 17.5894C30.5847 17.6996 30.5625 17.8086 30.5196 17.9101C30.4766 18.0115 30.4137 18.1033 30.3346 18.18C30.2555 18.2567 30.1618 18.3167 30.0591 18.3564C29.9564 18.3962 29.8467 18.415 29.7366 18.4115Z" fill="#3D8A74"/>
</svg>
