<svg width="35" height="35" viewBox="0 0 35 35" fill="none" xmlns="http://www.w3.org/2000/svg">
<path d="M20.4173 2.91699H8.75065C7.14648 2.91699 5.84857 4.22949 5.84857 5.83366L5.83398 29.167C5.83398 30.7712 7.1319 32.0837 8.73607 32.0837H26.2506C27.8548 32.0837 29.1673 30.7712 29.1673 29.167V11.667L20.4173 2.91699ZM21.8756 17.5003H16.0423V18.9587H20.4173C21.2194 18.9587 21.8756 19.6149 21.8756 20.417V24.792C21.8756 25.5941 21.2194 26.2503 20.4173 26.2503H18.959V27.7087H16.0423V26.2503H13.1256V23.3337H18.959V21.8753H14.584C13.7819 21.8753 13.1256 21.2191 13.1256 20.417V16.042C13.1256 15.2399 13.7819 14.5837 14.584 14.5837H16.0423V13.1253H18.959V14.5837H21.8756V17.5003ZM18.959 11.667V5.10449L25.5215 11.667H18.959Z" fill="#EFB657"/>
</svg>
