<svg width="35" height="35" viewBox="0 0 35 35" fill="none" xmlns="http://www.w3.org/2000/svg">
<path fill-rule="evenodd" clip-rule="evenodd" d="M24.3105 19.1475C26.3085 20.5037 27.7085 22.3412 27.7085 24.7912V29.1662H33.5418V24.7912C33.5418 21.612 28.3355 19.7308 24.3105 19.1475Z" fill="#6E4ABC"/>
<path d="M13.1263 17.4997C16.348 17.4997 18.9596 14.888 18.9596 11.6663C18.9596 8.44468 16.348 5.83301 13.1263 5.83301C9.90464 5.83301 7.29297 8.44468 7.29297 11.6663C7.29297 14.888 9.90464 17.4997 13.1263 17.4997Z" fill="#6E4ABC"/>
<path fill-rule="evenodd" clip-rule="evenodd" d="M21.8751 17.4997C25.098 17.4997 27.7085 14.8893 27.7085 11.6663C27.7085 8.44342 25.098 5.83301 21.8751 5.83301C21.1897 5.83301 20.548 5.97884 19.9355 6.18301C21.146 7.68509 21.8751 9.59551 21.8751 11.6663C21.8751 13.7372 21.146 15.6476 19.9355 17.1497C20.548 17.3538 21.1897 17.4997 21.8751 17.4997Z" fill="#6E4ABC"/>
<path fill-rule="evenodd" clip-rule="evenodd" d="M13.1257 18.958C9.2319 18.958 1.45898 20.9122 1.45898 24.7913V29.1663H24.7923V24.7913C24.7923 20.9122 17.0194 18.958 13.1257 18.958Z" fill="#6E4ABC"/>
</svg>
